<svg xmlns="http://www.w3.org/2000/svg" viewBox="0 0 32 32">
  <path fill="#13AA52" d="M15.9.087l.854 1.604c.192.296.4.558.645.802.715.715 1.394 1.464 2.004 2.266 1.447 1.9 2.423 4.01 3.12 6.292.418 1.394.645 2.824.662 4.27.07 4.323-1.412 8.035-4.4 11.12-.488.488-1.01.94-1.57 1.342-.296.21-.593.400-.906.573-.4.21-.85.346-1.297.435-.575.13-1.162.13-1.746 0-.296-.052-.592-.13-.87-.244-.488-.21-.96-.47-1.412-.76-.21-.14-.418-.28-.608-.436-1.447-1.342-2.717-2.824-3.748-4.41-1.464-2.243-2.42-4.68-2.998-7.343-.436-2.007-.645-4.01-.645-6.035 0-1.883.192-3.748.593-5.595.663-3.12 1.937-5.928 3.922-8.367.21-.262.418-.507.645-.733.21-.21.436-.402.662-.593.436-.296.888-.558 1.394-.733.506-.192 1.01-.27 1.554-.27z"/>
  <path fill="#FFF" d="M17.17 26.885c-.192-.14-.384-.28-.558-.418-1.297-1.168-2.28-2.577-3.12-4.062-1.01-1.812-1.728-3.748-2.117-5.804-.262-1.447-.384-2.895-.384-4.342 0-1.447.192-2.878.558-4.27.558-2.117 1.464-4.062 2.717-5.85.314-.436.662-.84 1.01-1.238.105-.14.227-.262.366-.384.227-.21.454-.402.715-.558.296-.192.628-.314.96-.384.384-.087.77-.087 1.162 0 .296.052.592.14.854.262.488.21.96.47 1.394.785.21.14.418.28.593.418 1.297 1.168 2.28 2.577 3.12 4.062 1.01 1.812 1.728 3.748 2.117 5.804.262 1.447.384 2.895.384 4.342 0 1.447-.192 2.878-.558 4.27-.558 2.117-1.464 4.062-2.717 5.85-.314.436-.662.84-1.01 1.238-.105.14-.227.262-.366.384-.227.21-.454.402-.715.558-.296.192-.628.314-.96.384-.384.087-.77.087-1.162 0-.296-.052-.592-.14-.854-.262-.488-.21-.96-.47-1.394-.785z"/>
  <path fill="#13AA52" d="M16.002 28.362c-.07-.035-.14-.087-.21-.14-.558-.436-.96-.96-1.297-1.57-.366-.662-.575-1.394-.645-2.152-.052-.558-.052-1.114 0-1.672.052-.558.14-1.114.296-1.654.21-.715.488-1.394.855-2.007.366-.628.785-1.21 1.297-1.742.227-.227.454-.436.715-.628.21-.14.436-.262.662-.366.227-.105.454-.175.698-.21.296-.035.593-.035.888 0 .296.035.575.14.84.28.488.21.96.47 1.394.785.21.14.418.28.593.418 1.297 1.168 2.28 2.577 3.12 4.062 1.01 1.812 1.728 3.748 2.117 5.804.262 1.447.384 2.895.384 4.342 0 .558-.035 1.114-.105 1.672-.087.645-.227 1.28-.454 1.9-.296.837-.715 1.6-1.297 2.243-.296.314-.628.593-.96.84-.227.175-.454.314-.698.418-.296.14-.628.21-.96.227-.366.017-.733 0-1.1-.07-.488-.087-.96-.21-1.412-.418-.21-.087-.418-.192-.593-.314-1.297-1.168-2.28-2.577-3.12-4.062-1.01-1.812-1.728-3.748-2.117-5.804-.175-.855-.262-1.724-.296-2.593z"/>
</svg>
