<?xml version="1.0" encoding="utf-8"?>
<svg version="1.1" id="Layer_1" xmlns="http://www.w3.org/2000/svg" xmlns:xlink="http://www.w3.org/1999/xlink" x="0px" y="0px" viewBox="0 0 100 100" style="enable-background:new 0 0 100 100" xml:space="preserve">
<style type="text/css">
	.st0{fill:#4285F4;}
	.st1{fill:#34A853;}
	.st2{fill:#FBBC04;}
	.st3{fill:#EA4335;}
	.st4{fill:#FFFFFF;}
</style>
<g>
	<!-- Google Drive Triangle -->
	<path class="st0" d="M15,65 L35,30 L65,30 L85,65 Z"/>
	<path class="st1" d="M15,65 L50,65 L70,35 L35,35 Z"/>
	<path class="st2" d="M50,65 L85,65 L70,35 L35,35 Z"/>
	
	<!-- Drive folder icon -->
	<rect class="st4" x="25" y="40" width="50" height="30" rx="3" ry="3"/>
	<rect class="st0" x="25" y="40" width="50" height="6" rx="3" ry="3"/>
	<rect class="st4" x="25" y="46" width="50" height="24" rx="0" ry="0"/>
	
	<!-- File icons inside -->
	<rect class="st3" x="30" y="50" width="8" height="10" rx="1" ry="1"/>
	<rect class="st1" x="40" y="50" width="8" height="10" rx="1" ry="1"/>
	<rect class="st2" x="50" y="50" width="8" height="10" rx="1" ry="1"/>
	<rect class="st0" x="60" y="50" width="8" height="10" rx="1" ry="1"/>
</g>
</svg>